<svg width="96" height="96" viewBox="0 0 96 96" fill="none" xmlns="http://www.w3.org/2000/svg">
  <rect x="18" y="12" width="26" height="66" rx="3" fill="#F4F5F7"/>
  <rect x="44" y="52" width="36" height="26" rx="3" fill="#F4F5F7"/>

  <rect x="22" y="16" width="18" height="4" rx="2" fill="#C7CBD2"/>
  <rect x="22" y="24" width="18" height="4" rx="2" fill="#8D929B"/>
  <rect x="22" y="32" width="18" height="4" rx="2" fill="#C7CBD2"/>
  <rect x="22" y="40" width="18" height="4" rx="2" fill="#8D929B"/>
  <rect x="22" y="48" width="18" height="4" rx="2" fill="#C7CBD2"/>
  <rect x="22" y="56" width="18" height="4" rx="2" fill="#8D929B"/>
  <rect x="22" y="64" width="18" height="4" rx="2" fill="#C7CBD2"/>

  <rect x="48" y="56" width="28" height="4" rx="2" fill="#C7CBD2"/>
  <rect x="48" y="64" width="28" height="4" rx="2" fill="#8D929B"/>
  <rect x="48" y="72" width="28" height="4" rx="2" fill="#C7CBD2"/>
</svg>
